# xmcd
#
# Track frame offsets: 
#        150
#        9844
#        20241
#        28864
#        38237
#        48284
#        60763
#        69720
#        79640
#        89912
#        101286
#        112431
#        124440
#        136638
#        145112
#        156460
#        168280
#        179966
#        190398
#        200744
#        210749
#        220185
#        231864
#        243971
#
# Disc length: 3408 seconds
#
# Revision: 0
# Processed by: cddbd v1.5.2PL0 Copyright (c) Steve Scherf et al.
# Submitted via: ExactAudioCopy v0.95b3
#
DISCID=650d4e18
DTITLE=Elvis Presley  - Original Recordings - Cd 1  FLAC
DYEAR=1900
DGENRE=
TTITLE0=Heartbreak Hotel
TTITLE1=Hound Dog
TTITLE2=Rip It Up
TTITLE3=Don't Be Cruel
TTITLE4=My Baby Left Me
TTITLE5=Love Me
TTITLE6=That's Allright (Mama)
TTITLE7=Lawdy Miss Clawdy
TTITLE8=Poor Boy
TTITLE9=I Don't Care If The Sun Don't Shine
TTITLE10=Anyplace Is Paradise
TTITLE11=I'm Left, You're Right, She's Gone
TTITLE12=Blue Moon
TTITLE13=Long Tall Sally
TTITLE14=Mystery Train
TTITLE15=I Was The One
TTITLE16=Trying To Get To You
TTITLE17=Baby Let's Play House
TTITLE18=Anyway You Want Me (That's How I Will Be)
TTITLE19=One-Sided Love Affair
TTITLE20=I'm Gonna Sit Right Down And Cry (Over You)
TTITLE21=Just Because
TTITLE22=I Want You, I Need You, I love You
TTITLE23=Money Honey
EXTD=
EXTT0=
EXTT1=
EXTT2=
EXTT3=
EXTT4=
EXTT5=
EXTT6=
EXTT7=
EXTT8=
EXTT9=
EXTT10=
EXTT11=
EXTT12=
EXTT13=
EXTT14=
EXTT15=
EXTT16=
EXTT17=
EXTT18=
EXTT19=
EXTT20=
EXTT21=
EXTT22=
EXTT23=
PLAYORDER=
